<?xml version="1.0" encoding="UTF-8"?>
<svg id="Calque_2" xmlns="http://www.w3.org/2000/svg" viewBox="0 0 59.44 9.4">
  <defs>
    <style>
      .cls-1 {
        fill: #fff;
      }

      .cls-2 {
        fill: #e7395b;
        stroke: #e7395b;
        stroke-miterlimit: 10;
        stroke-width: .08px;
      }
    </style>
  </defs>
  <g id="Calque_1-2" data-name="Calque_1">
    <g>
      <g>
        <path class="cls-1" d="M52.44,9.13h.05c.05,0,.1-.02.14-.06.04-.04.08-.09.11-.15.03-.06.06-.12.07-.19.01-.07.02-.13.02-.19V2.86l-2.78,6.49-2.64-6.16v5.34c0,.06,0,.12.02.19.01.07.04.13.07.19.03.06.07.11.11.15.04.04.09.06.15.06h.05v.11h-1.18v-.11h.05c.05,0,.1-.02.14-.06.04-.04.08-.09.11-.15.03-.06.05-.12.06-.19.01-.07.02-.13.02-.19V2.79c0-.05,0-.11-.02-.17-.01-.07-.04-.13-.06-.18-.03-.06-.06-.11-.11-.15-.04-.04-.09-.06-.14-.06h-.05v-.11h1.1l2.5,5.9,2.5-5.9h1.22v.11h-.05c-.06,0-.11.02-.15.06-.04.04-.08.09-.11.15s-.06.12-.07.18c-.01.06-.02.12-.02.17v5.75c0,.06,0,.12.02.19.01.07.04.13.07.19.03.06.07.11.11.15.04.04.09.06.15.06h.05v.11h-1.53v-.11Z"/>
        <path class="cls-1" d="M55.02,9.13h.05c.06,0,.11-.02.15-.06.04-.04.08-.09.11-.15.03-.06.06-.12.08-.18.02-.06.03-.13.03-.18V2.79c0-.05,0-.11-.03-.17-.02-.07-.04-.13-.08-.18-.03-.06-.07-.11-.11-.15-.04-.04-.09-.06-.15-.06h-.05v-.11h4.15v1h-.11c-.01-.17-.08-.31-.19-.44-.12-.13-.3-.19-.54-.19h-2.17v2.73h1.79c.17,0,.3-.05.42-.15s.17-.22.17-.36h.11v1.35h-.11c0-.13-.05-.24-.16-.33-.11-.09-.25-.14-.42-.14h-1.79v3.27h2.36c.14,0,.26-.03.36-.1s.19-.14.25-.23.12-.19.15-.29c.03-.1.05-.19.05-.26h.11v1.26h-4.42v-.11Z"/>
      </g>
      <path class="cls-2" d="M55.07,2.4c-.04-.38-.21-.68-.51-.89-1.09-.79-3.05.14-4.69,2.11-.66.78-1.29,1.91-1.81,2.84.15-.7.24-1.08.35-1.69.05-.26.23-1.72.29-2.05.09-.14.32-.53.37-.63.22-.42.39-.76.33-.93-.02-.05-.06-.08-.11-.1-.04,0-.07,0-.1.02-.19.14-.36.83-.51,1.63-.45.73-1.53,2.45-2.47,3.6-.7.85-1.69,2.03-3.11,2.72-.97.48-2.1.23-2.77-.14-.15-.08-.28-.17-.39-.26.35-.24.62-.52.83-.76.05-.05.09-.11.13-.16,0,0,.02-.02.02-.03.39.38,1.27.56,2.14.26.63-.22,1.47-.75,1.8-1.52.09-.21.14-.43.13-.65.14.1.28.22.42.36l.02-.03c-.15-.15-.3-.27-.44-.38,0-.13-.03-.26-.07-.39-.1-.32-.4-.63-.82-.84-.73-.38-1.67-.38-2.52-.03-.18-.6-.51-1.07-.84-1.42.16-.39.24-.76.24-1.09,0-.75-.44-1.27-1.49-1.27-1.15,0-2.2.42-3.05,1.09-.44.05-.85.14-1.24.25.65-.66,1.71-1.3,2.72-1.64.16-.05.32-.1.47-.14.32-.08.62-.12.89-.12s.28-.07.01-.07c-.44,0-.95.1-1.45.27-1.06.36-2.15,1.04-2.82,1.76-1.25.41-2.3,1.13-2.99,1.74l.03.03c.67-.59,1.62-1.26,2.83-1.68,0,0,0,.01-.01.02-.07.08-.14.16-.2.24-.21.25-.39.51-.55.77-.05.07-.09.14-.13.21-.08.14-.15.27-.21.41-.04.07-.07.14-.09.21-.03.06-.05.11-.07.18-.11.29-.19.57-.23.84,0,.07-.02.14-.02.2,0,.03,0,.07,0,.09v.09c0,.18.01.34.04.49,0,0,0,0,0,0,.02.08.04.16.06.23.18.5.54.8,1.01.95.05.16.12.3.19.44l.15.25s.01.01.02.02c.01.02.03.04.05.06.05.07.1.14.16.2.13.15.27.29.41.42.17.14.62.53,1.26.73.33.1.65.14.94.14.66,0,1.19-.2,1.41-.28.03-.01.06-.02.09-.03.03,0,.06-.02.09-.04.05-.02.11-.05.16-.07h0c.11-.06.21-.12.31-.18.06-.04.12-.08.18-.11,0,0,0,0,0,0h0c.12.1.26.18.41.27,2.34,1.39,4.91-1.05,5.47-1.64,1.69-1.77,2.45-3.83,2.88-4.51-.06.3-.11.62-.16.92-.05.31-.1.6-.15.86-.12.64-.28,1.45-.44,2.16-.59,1.06-.98,2.16-.95,2.48,0,.05.02.09.05.1.03.02.06.03.09.03,0,0,.02,0,.03,0,.16-.06.41-.84.41-.84.09-.26.35-1.24.5-1.96.53-.94,1.1-1.79,1.77-2.59.66-.79.82-.9,1.73-1.65.97-.79,2.51-1.1,2.99-.75.29.21.46.5.5.87.06.58-.25,1.25-.76,1.82-.6.65-1.57.97-2.14.6-.23-.15-.36-.36-.39-.63-.03-.35.12-.68.21-.77v-.02c-.11.09-.27.44-.23.8.03.27.17.5.4.65.58.37,1.65.14,2.26-.52.52-.58.74-1.33.68-1.92ZM49.13,1.31c.15-.08.1.21-.12.73-.09.22-.22.48-.3.59.14-.75.22-1.23.42-1.33ZM40.9,7.6c-.06-.06-.09-.12-.12-.19-.07-.18-.09-.43,0-.65.2-.52.88-.98.88-.98,0,.05-.04.23-.05.27,0,.04-.01.09-.03.13,0,.04-.01.08-.03.12,0,.06-.03.11-.05.17-.01.05-.03.1-.05.15-.03.09-.07.18-.11.26-.02.06-.05.11-.08.15,0,.02-.02.05-.03.07,0,.01-.01.03-.02.04-.02.03-.04.07-.07.12-.05.09-.12.21-.23.35ZM44.83,6.39c-.32.76-1.16,1.28-1.78,1.5-.87.3-1.73.12-2.11-.25.08-.1.14-.2.19-.28.03-.04.05-.08.07-.12,0-.02.02-.04.03-.05,0-.01.02-.03.02-.04.11-.21.38-.8.46-1.41.18-.1.52-.33,1.38-.46.58-.09,1.24.01,1.86.45,0,.22-.03.44-.13.66ZM44.08,4.52c.41.21.7.51.8.82.03.11.06.23.07.35-1-.71-2.15-.64-3.24-.09.01-.19.01-.3-.01-.52-.02-.21-.06-.41-.12-.6.85-.35,1.77-.34,2.5.03ZM40.31,3.61c-.18.31-.38.62-.61.91,0,0,0,.01-.01.02-1.22,1.48-3.04,2.41-4.17,2.56-.01,0-.03,0-.04,0-.09,0-.18,0-.26,0-.21,0-.42-.02-.61-.07-.06-.23-.09-.48-.09-.75,0-.4.07-.81.19-1.22t0,0c.07-.21.14-.41.23-.62.13-.3.29-.6.47-.88.16-.26.34-.51.53-.74.12-.15.26-.3.4-.44.21-.22.43-.43.66-.61.79-.03,1.93-.06,3.01.7.15.1.37.28.61.52,0,0,0,0,0,.01-.03.09-.07.17-.11.26-.03.06-.06.12-.09.18-.03.06-.07.11-.1.18ZM40.05,2.42c-1.06-.73-2.17-.74-2.95-.71h-.01c.77-.59,1.62-.97,2.41-.97.97,0,1.37.48,1.37,1.17,0,.3-.08.64-.21,1.01h0c-.23-.23-.44-.4-.59-.51ZM34.44,7s0,0,0,0c-.59-.21-.96-.71-.96-1.57,0-.13,0-.26.03-.39.08-.53.31-1.11.65-1.68.07-.11.13-.22.21-.33.06-.08.11-.16.17-.24.18-.24.37-.48.58-.7.39-.12.8-.21,1.24-.27,0,0-.01,0-.02.01-.23.19-.44.39-.63.62-.66.75-1.13,1.68-1.31,2.67-.05.3-.08.6-.08.9,0,.36.05.68.13.97ZM39.47,8.84c-.07.03-.14.07-.21.1-.07.03-.14.06-.21.09-.31.12-1.26.47-2.31.14-.62-.2-.98-.49-1.24-.69-.41-.32-.68-.77-.86-1.33t0,0c.18.04.37.06.58.06.09,0,.18,0,.27,0,.06,0,.11,0,.18-.02.43-.08.95-.24,1.48-.5.14-.06.27-.12.39-.19.27-.15.53-.31.8-.5.04-.02.07-.05.1-.08.46-.33.91-.73,1.3-1.18,0,0,0,0,0-.01.38-.44.7-.94.92-1.49.02-.04.04-.08.05-.12,0,0,0-.01,0-.02.32.35.64.8.81,1.39,0,0,0,0-.01,0-.05.02-.09.04-.13.06-1.61.71-3.26,2.36-1.52,4.07-.12.08-.26.16-.39.23ZM39.9,8.58s0,0,0,0c-1.39-1.44-.13-2.8.21-3.14.31-.31.73-.6,1.29-.88.04-.02.09-.04.13-.06,0,0,0,0,.01,0,.02.09.05.18.07.27.02.1.04.21.05.32,0,.1.01.21.01.31h0c0,.13,0,.13-.01.24-.5.3-.84.69-.98,1.05-.09.23-.05.48.02.68.03.08.12.2.18.27h0s0,0,0,.01c-.05.07-.11.15-.18.22-.07.08-.15.17-.24.25-.05.05-.1.09-.15.14-.08.07-.17.14-.26.21-.05.03-.1.07-.15.11ZM47.53,8.47c-.06.22-.19.57-.35.62-.03.01-.11,0-.13-.11-.03-.31.28-1.17.85-2.19-.15.68-.24,1.18-.37,1.68Z"/>
      <g>
        <path class="cls-1" d="M5.77,9.14h.05c.06,0,.11-.02.15-.06.04-.04.08-.09.11-.15.03-.06.06-.12.08-.18.02-.06.03-.13.03-.18V2.8c0-.05,0-.11-.03-.17-.02-.07-.04-.13-.08-.18-.03-.06-.07-.11-.11-.15-.04-.04-.09-.06-.15-.06h-.05v-.11h1.55v.11h-.05c-.06,0-.11.02-.15.06-.04.04-.08.09-.11.15s-.05.12-.07.18c-.02.06-.03.12-.03.17v6.05h2.36c.14,0,.26-.03.36-.1s.19-.15.25-.24c.07-.1.12-.2.15-.31s.05-.21.05-.31h.11v1.36h-4.42v-.11Z"/>
        <path class="cls-1" d="M13.98,2.02c.56,0,1.06.1,1.51.3.45.2.83.46,1.14.8.31.33.55.72.72,1.17s.25.9.25,1.39c0,.54-.1,1.04-.3,1.49s-.47.84-.81,1.17c-.34.32-.75.58-1.2.76-.46.18-.94.28-1.46.28-.55,0-1.05-.1-1.49-.3-.44-.2-.82-.47-1.12-.8-.31-.33-.54-.71-.71-1.14-.17-.43-.25-.88-.25-1.35s.08-.91.25-1.36c.17-.45.41-.85.73-1.2s.71-.64,1.17-.85c.46-.22.99-.32,1.58-.32ZM13.97,8.98c.48-.02.91-.13,1.27-.33.36-.2.67-.45.91-.76.24-.31.43-.64.55-1.01.12-.37.18-.73.18-1.09,0-.4-.07-.79-.22-1.2-.14-.4-.35-.77-.62-1.09-.27-.33-.59-.59-.96-.8-.37-.2-.79-.31-1.25-.31s-.85.1-1.2.3c-.35.2-.65.45-.9.76-.25.31-.44.65-.57,1.04-.13.38-.19.76-.19,1.12,0,.4.08.79.23,1.19.15.4.36.76.63,1.08.27.32.58.59.95.79.36.2.76.3,1.19.3Z"/>
        <path class="cls-1" d="M22.19,2.02c.56,0,1.06.1,1.51.3.45.2.83.46,1.14.8.31.33.55.72.72,1.17s.25.9.25,1.39c0,.54-.1,1.04-.3,1.49s-.47.84-.81,1.17c-.34.32-.75.58-1.2.76-.46.18-.94.28-1.46.28-.55,0-1.05-.1-1.49-.3-.44-.2-.82-.47-1.12-.8-.31-.33-.54-.71-.71-1.14-.17-.43-.25-.88-.25-1.35s.08-.91.25-1.36c.17-.45.41-.85.73-1.2s.71-.64,1.17-.85c.46-.22.99-.32,1.58-.32ZM22.18,8.98c.48-.02.91-.13,1.27-.33.36-.2.67-.45.91-.76.24-.31.43-.64.55-1.01.12-.37.18-.73.18-1.09,0-.4-.07-.79-.22-1.2-.14-.4-.35-.77-.62-1.09-.27-.33-.59-.59-.96-.8-.37-.2-.79-.31-1.25-.31s-.85.1-1.2.3c-.35.2-.65.45-.9.76-.25.31-.44.65-.57,1.04-.13.38-.19.76-.19,1.12,0,.4.08.79.23,1.19.15.4.36.76.63,1.08.27.32.58.59.95.79.36.2.76.3,1.19.3Z"/>
        <path class="cls-1" d="M26.75,9.14h.05c.05,0,.1-.02.14-.06.04-.04.08-.09.11-.15.03-.06.06-.12.07-.19.01-.07.02-.13.02-.19V2.8c0-.05,0-.11-.02-.17-.01-.07-.04-.13-.06-.18-.03-.06-.06-.11-.11-.15-.04-.04-.09-.06-.15-.06h-.05v-.11h2.08c.57,0,1.08.1,1.53.3s.84.46,1.15.8c.31.33.55.72.72,1.15.17.43.25.88.25,1.35,0,.44-.08.87-.24,1.29-.16.42-.4.8-.71,1.13-.32.33-.71.6-1.19.8-.47.2-1.02.31-1.65.31h-1.94v-.11ZM31.76,5.88c0-.46-.08-.9-.25-1.31s-.4-.77-.7-1.07c-.3-.31-.65-.55-1.06-.73-.41-.18-.85-.27-1.33-.27h-.55v6.36h.57c.39,0,.78-.06,1.17-.18s.75-.3,1.07-.55c.32-.25.57-.56.77-.93.2-.37.3-.82.3-1.33Z"/>
        <path class="cls-1" d="M.02,9.14h.05c.05,0,.1-.02.14-.06.04-.04.08-.09.11-.15.03-.06.06-.12.07-.19.01-.07.02-.13.02-.19V2.81c0-.05,0-.11-.02-.17-.01-.07-.04-.13-.07-.19-.03-.06-.07-.11-.12-.15-.05-.04-.1-.06-.16-.06h-.05v-.11h1.77c.67,0,1.19.15,1.57.44.38.3.57.69.57,1.18,0,.21-.04.4-.11.56-.07.17-.16.31-.28.44s-.23.24-.36.33-.25.16-.37.22c.3.06.55.15.76.29.2.14.36.29.49.47s.21.36.26.57c.05.2.07.4.07.59,0,.37-.07.69-.2.94-.14.26-.32.46-.54.63-.23.16-.48.28-.77.35-.29.07-.59.11-.9.11H.02v-.11ZM3.2,3.84c-.02-.42-.17-.75-.44-1-.27-.25-.63-.37-1.08-.37h-.54v2.73h.56c.3,0,.55-.04.74-.12.19-.08.34-.18.46-.31.12-.13.19-.27.24-.42s.06-.3.06-.44v-.08ZM3.65,7.29c-.06-.56-.24-.98-.56-1.29-.32-.3-.76-.45-1.34-.45h-.6v3.35h.63c.58,0,1.04-.13,1.38-.4.33-.26.5-.63.5-1.1v-.12Z"/>
      </g>
    </g>
  </g>
</svg>